<svg width="32" height="32" viewBox="0 0 32 32" fill="none" xmlns="http://www.w3.org/2000/svg">
  <defs>
    <linearGradient id="grad" x1="0%" y1="0%" x2="100%" y2="100%">
      <stop offset="0%" style="stop-color:#3B82F6"/>
      <stop offset="50%" style="stop-color:#4F46E5"/>
      <stop offset="100%" style="stop-color:#9333EA"/>
    </linearGradient>
  </defs>
  
  <!-- Background with gradient -->
  <rect width="32" height="32" rx="6" fill="url(#grad)"/>
  
  <!-- Wallet icon -->
  <path d="M24 14h-2v-2c0-1.1-.9-2-2-2h-8c-1.1 0-2 .9-2 2v2H8c-1.1 0-2 .9-2 2v6c0 1.1.9 2 2 2h16c1.1 0 2-.9 2-2v-6c0-1.1-.9-2-2-2zm-12-2h8v2h-8v-2zm10 10H10v-6h12v6z" fill="white"/>
  <circle cx="19" cy="19" r="1.5" fill="white"/>
</svg>